<svg width="128" height="128" viewBox="0 0 128 128" fill="none" xmlns="http://www.w3.org/2000/svg">
<g clip-path="url(#clip0_165_3)">
<g filter="url(#filter0_d_165_3)">
<circle cx="64" cy="64" r="50" fill="#27283B"/>
<circle cx="64" cy="64" r="47.5" stroke="white" stroke-width="5"/>
</g>
<path d="M77.806 76.2709L64.0006 48.6602L50.1953 76.2709L60.9325 88.5424H54.797V97.7461H73.204V88.5424H67.0684L77.806 76.2709Z" fill="white"/>
<path d="M64.0003 97.7461V48.6602L77.8057 76.2709L67.0684 88.5424H73.204V97.7461H64.0003Z" fill="#BBD8FF"/>
<path d="M64 30.2538L57.8652 36.3885L64 42.5232L70.135 36.3885L64 30.2538Z" fill="#BBD8FF"/>
<path d="M36.3891 57.8647L30.2544 63.9994L36.3891 70.1344L42.5238 63.9994L36.3891 57.8647Z" fill="#BBD8FF"/>
<path d="M91.6108 57.8647L85.4758 63.9994L91.6108 70.1344L97.7455 63.9994L91.6108 57.8647Z" fill="#BBD8FF"/>
<path d="M67.0684 88.5424L77.806 76.2709L64.0006 48.6602L50.1953 76.2709L60.9325 88.5424" stroke="#345A8F" stroke-width="2" stroke-miterlimit="10" stroke-linecap="round" stroke-linejoin="round"/>
<path d="M73.204 88.5424H54.7968V97.7461H73.204V88.5424Z" stroke="#345A8F" stroke-width="2" stroke-miterlimit="10" stroke-linecap="round" stroke-linejoin="round"/>
<path d="M64.0003 73.2031V48.6602" stroke="#345A8F" stroke-width="2" stroke-miterlimit="10" stroke-linecap="round" stroke-linejoin="round"/>
<path d="M60.9325 39.4564L39.4576 60.9316" stroke="#345A8F" stroke-width="2" stroke-miterlimit="10" stroke-linecap="round" stroke-linejoin="round"/>
<path d="M64 30.2538L57.8652 36.3885L64 42.5232L70.135 36.3885L64 30.2538Z" stroke="#345A8F" stroke-width="2" stroke-miterlimit="10" stroke-linecap="round" stroke-linejoin="round"/>
<path d="M36.3891 57.8647L30.2544 63.9994L36.3891 70.1344L42.5238 63.9994L36.3891 57.8647Z" stroke="#345A8F" stroke-width="2" stroke-miterlimit="10" stroke-linecap="round" stroke-linejoin="round"/>
<path d="M91.6108 57.8647L85.4758 63.9994L91.6108 70.1344L97.7455 63.9994L91.6108 57.8647Z" stroke="#345A8F" stroke-width="2" stroke-miterlimit="10" stroke-linecap="round" stroke-linejoin="round"/>
<path d="M67.0684 39.4564L88.5433 60.9316" stroke="#345A8F" stroke-width="2" stroke-miterlimit="10" stroke-linecap="round" stroke-linejoin="round"/>
</g>
<defs>
<filter id="filter0_d_165_3" x="-16" y="-16" width="168" height="168" filterUnits="userSpaceOnUse" color-interpolation-filters="sRGB">
<feFlood flood-opacity="0" result="BackgroundImageFix"/>
<feColorMatrix in="SourceAlpha" type="matrix" values="0 0 0 0 0 0 0 0 0 0 0 0 0 0 0 0 0 0 127 0" result="hardAlpha"/>
<feOffset dx="4" dy="4"/>
<feGaussianBlur stdDeviation="17"/>
<feComposite in2="hardAlpha" operator="out"/>
<feColorMatrix type="matrix" values="0 0 0 0 0 0 0 0 0 0 0 0 0 0 0 0 0 0 0.25 0"/>
<feBlend mode="normal" in2="BackgroundImageFix" result="effect1_dropShadow_165_3"/>
<feBlend mode="normal" in="SourceGraphic" in2="effect1_dropShadow_165_3" result="shape"/>
</filter>
<clipPath id="clip0_165_3">
<rect width="128" height="128" fill="white"/>
</clipPath>
</defs>
</svg>
